<?xml version="1.0" encoding="UTF-8"?>
<svg width="39px" height="39px" viewBox="0 0 39 39" version="1.1" xmlns="http://www.w3.org/2000/svg" xmlns:xlink="http://www.w3.org/1999/xlink">
    <title>facebook</title>
    <g id="Page-1" stroke="none" stroke-width="1" fill="none" fill-rule="evenodd">
        <g id="facebook">
            <circle id="Oval" fill="#57587F" cx="19.5" cy="19.5" r="19.5"></circle>
            <g id="icon-facebook" transform="translate(15.000000, 9.000000)" fill="#FFFFFF" fill-rule="nonzero">
                <path d="M9,6.7998965 L5.93491625,6.7998965 L5.93491625,4.62034775 C5.93491625,3.80182157 6.43527263,3.61099151 6.7876871,3.61099151 C7.13929971,3.61099151 8.95068603,3.61099151 8.95068603,3.61099151 L8.95068603,0.0126060857 L5.9718015,0 C2.66495902,0 1.91241981,2.68379218 1.91241981,4.40126268 L1.91241981,6.7998965 L0,6.7998965 L0,10.5078245 L1.91241981,10.5078245 C1.91241981,15.2664045 1.91241981,21 1.91241981,21 L5.93491625,21 C5.93491625,21 5.93491625,15.2098944 5.93491625,10.5078245 L8.64918924,10.5078245 L9,6.7998965 Z" id="Path"></path>
            </g>
        </g>
    </g>
</svg>