<?xml version="1.0" encoding="UTF-8"?>
<svg width="39px" height="39px" viewBox="0 0 39 39" version="1.1" xmlns="http://www.w3.org/2000/svg" xmlns:xlink="http://www.w3.org/1999/xlink">
    <title>Group</title>
    <g id="Page-1" stroke="none" stroke-width="1" fill="none" fill-rule="evenodd">
        <g id="Group">
            <circle id="Oval" fill="#57587F" cx="19.5" cy="19.5" r="19.5"></circle>
            <g id="icon-twitter" transform="translate(9.000000, 11.000000)" fill="#FFFFFF" fill-rule="nonzero">
                <path d="M21,2.01915709 C20.2149533,2.34482759 19.4299065,2.60536398 18.5140187,2.67049808 C19.4299065,2.14942529 20.0841121,1.30268199 20.411215,0.325670498 C19.5607477,0.846743295 18.6448598,1.17241379 17.6635514,1.36781609 C16.9439252,0.521072797 15.7663551,0 14.588785,0 C12.2336449,0 10.271028,1.88888889 10.271028,4.29885057 C10.271028,4.62452107 10.3364486,4.95019157 10.4018692,5.27586207 C6.80373832,5.08045977 3.6635514,3.38697318 1.5046729,0.781609195 C1.11214953,1.43295019 0.91588785,2.14942529 0.91588785,2.93103448 C0.91588785,4.42911877 1.70093458,5.73180077 2.81308411,6.51340996 C2.09345794,6.51340996 1.43925234,6.31800766 0.85046729,5.99233716 C0.85046729,5.99233716 0.85046729,6.05747126 0.85046729,6.05747126 C0.85046729,8.14176245 2.35514019,9.83524904 4.31775701,10.2260536 C3.92523364,10.2911877 3.59813084,10.3563218 3.20560748,10.3563218 C2.94392523,10.3563218 2.68224299,10.3563218 2.42056075,10.2911877 C2.94392523,11.9846743 4.57943925,13.2222222 6.41121495,13.2873563 C4.97196262,14.4597701 3.07476636,15.1111111 1.04672897,15.1111111 C0.719626168,15.1111111 0.327102804,15.1111111 0,15.045977 C1.89719626,16.2835249 4.18691589,17 6.60747664,17 C14.5233645,17 18.8411215,10.48659 18.8411215,4.81992337 C18.8411215,4.62452107 18.8411215,4.42911877 18.8411215,4.29885057 C19.6915888,3.64750958 20.411215,2.86590038 21,2.01915709 Z" id="Path"></path>
            </g>
        </g>
    </g>
</svg>